<?xml version="1.0" standalone="no"?>
<!DOCTYPE svg PUBLIC "-//W3C//DTD SVG 20010904//EN"
 "http://www.w3.org/TR/2001/REC-SVG-20010904/DTD/svg10.dtd">
<svg version="1.0" xmlns="http://www.w3.org/2000/svg"
 width="1201.000000pt" height="1201.000000pt" viewBox="0 0 1201.000000 1201.000000"
 preserveAspectRatio="xMidYMid meet">
<metadata>
Created by potrace 1.11, written by Peter Selinger 2001-2013
</metadata>
<g transform="translate(0.000000,1201.000000) scale(0.100000,-0.100000)"
fill="#000000" stroke="none">
<path d="M5615 12000 c-1888 -129 -3575 -1110 -4620 -2685 -553 -833 -877
-1766 -971 -2795 -24 -253 -24 -775 0 -1030 71 -780 268 -1478 607 -2160 583
-1168 1510 -2100 2669 -2684 711 -359 1407 -554 2240 -628 179 -16 747 -16
930 0 1082 94 2027 424 2902 1014 1387 934 2331 2432 2572 4078 76 512 86
1070 30 1575 -195 1755 -1175 3353 -2654 4330 -832 550 -1735 868 -2750 971
-184 18 -765 27 -955 14z m740 -120 c1741 -108 3323 -962 4365 -2355 626 -837
1020 -1830 1134 -2860 54 -491 45 -1025 -25 -1510 -120 -833 -438 -1668 -903
-2375 -233 -353 -446 -612 -770 -936 -239 -239 -393 -373 -629 -550 -1661
-1245 -3862 -1519 -5779 -720 -1201 501 -2198 1381 -2850 2516 -706 1227 -942
2700 -657 4090 199 968 622 1842 1263 2610 148 176 406 443 582 601 1000 893
2276 1421 3609 1492 146 8 514 6 660 -3z"/>
<path d="M6180 11344 c-99 -50 -282 -255 -316 -354 -20 -57 -3 -107 43 -127
30 -12 52 -13 135 -4 54 6 132 11 173 11 68 0 75 -2 94 -26 32 -40 28 -97 -7
-122 -49 -36 -91 -32 -223 23 -139 57 -189 44 -174 -46 13 -74 113 -145 239
-168 92 -17 122 -14 199 22 86 40 152 106 163 162 18 100 -22 225 -92 283 -47
39 -101 52 -214 52 l-91 0 72 80 c76 84 110 100 140 64 18 -22 64 -44 93 -44
83 0 72 128 -17 194 -20 15 -47 21 -95 24 -58 3 -75 -1 -122 -24z"/>
<path d="M5235 11316 c-91 -43 -183 -157 -266 -328 -48 -100 -52 -156 -14
-193 34 -34 76 -32 245 11 85 22 150 34 165 30 29 -7 65 -60 65 -94 0 -13 -13
-37 -29 -53 -36 -36 -82 -38 -203 -9 -151 36 -196 24 -183 -48 9 -54 48 -94
123 -123 46 -19 77 -23 162 -23 l105 -1 60 42 c110 75 145 130 145 225 -1 120
-97 241 -209 262 -18 3 -76 -1 -128 -10 -52 -9 -96 -14 -99 -12 -2 3 23 47 56
98 68 103 63 101 155 60 40 -17 55 -20 78 -11 24 9 27 16 27 53 0 57 -28 100
-82 127 -57 27 -111 27 -173 -3z"/>
<path d="M6933 11255 c-66 -28 -87 -85 -158 -417 -21 -99 -26 -147 -24 -217 4
-83 6 -92 34 -121 44 -45 87 -53 313 -54 191 -1 204 0 218 18 22 31 18 83 -8
100 -38 25 -116 38 -263 45 l-140 6 0 55 c1 30 4 67 8 81 l7 27 77 -15 c87
-17 171 -13 184 8 5 8 9 31 9 51 0 47 -20 59 -140 84 -47 9 -88 20 -92 23 -7
6 17 135 30 155 5 10 42 -1 142 -40 203 -80 274 -89 316 -43 23 25 22 75 -2
98 -10 10 -57 31 -104 46 -47 15 -142 49 -212 76 -139 53 -148 55 -195 34z"/>
<path d="M4163 11064 c-44 -68 -73 -363 -55 -566 13 -152 31 -224 68 -268 26
-30 64 -39 92 -22 21 14 29 64 21 127 -15 117 -12 134 19 140 15 4 67 20 115
37 l89 30 66 -69 c76 -79 119 -102 158 -85 37 18 49 52 31 93 -8 19 -65 95
-127 169 -62 74 -138 169 -168 210 -132 179 -188 230 -253 230 -31 0 -42 -5
-56 -26z m221 -356 l18 -27 -57 -26 c-32 -14 -59 -25 -61 -25 -6 0 -4 89 2
147 l7 51 36 -46 c21 -26 45 -59 55 -74z"/>
<path d="M7810 10993 c-29 -26 -127 -249 -231 -526 -44 -118 -35 -184 29 -208
38 -14 74 26 118 133 20 48 40 88 44 88 7 0 110 -105 110 -112 0 -2 -7 -25
-15 -52 -21 -70 -20 -155 2 -163 63 -24 120 7 148 82 17 44 25 173 13 216 -7
24 -4 27 50 43 164 52 252 136 252 240 0 26 -6 61 -13 79 -41 98 -263 207
-421 207 -47 0 -61 -4 -86 -27z m235 -189 l117 -55 -23 -25 c-59 -63 -166 -89
-244 -60 -25 10 -45 21 -45 26 0 17 63 170 70 170 4 0 60 -25 125 -56z"/>
<path d="M3424 10721 c-95 -34 -231 -132 -279 -201 -23 -34 -27 -47 -23 -89 5
-50 60 -144 273 -468 91 -138 143 -168 209 -120 17 13 18 18 7 63 -7 27 -32
80 -57 119 -50 78 -50 77 41 94 l60 11 50 -54 c70 -76 109 -100 136 -86 28 16
51 73 43 108 -17 65 -117 167 -191 192 l-31 11 21 62 c14 43 21 90 21 152 1
78 -2 96 -24 135 -46 83 -146 111 -256 71z m106 -211 c0 -92 -42 -174 -108
-213 l-31 -18 -51 75 c-27 41 -50 79 -50 83 0 10 210 132 228 132 8 1 12 -17
12 -59z"/>
<path d="M8703 10613 c-26 -5 -73 -57 -73 -81 0 -9 14 -30 31 -48 l30 -31
-141 -195 -141 -195 -42 4 c-58 7 -91 -20 -90 -71 1 -49 20 -75 87 -121 43
-29 68 -39 109 -43 46 -4 57 -1 85 23 40 33 42 72 7 105 -14 13 -23 30 -21 37
6 14 239 346 264 375 13 16 17 16 43 3 49 -26 81 -19 108 22 l24 37 -22 41
c-27 51 -105 112 -167 131 -48 14 -52 15 -91 7z"/>
<path d="M9232 10165 c-54 -24 -94 -60 -247 -221 -154 -165 -186 -206 -205
-271 -24 -81 14 -133 175 -240 117 -78 217 -133 242 -133 28 0 63 41 63 75 0
38 -70 104 -204 193 -55 37 -105 70 -110 74 -11 7 30 71 69 108 l24 23 62 -56
c34 -31 81 -64 106 -73 41 -16 44 -16 64 2 54 49 45 76 -58 176 l-70 67 62 61
61 61 103 -136 c111 -147 155 -185 212 -185 45 0 69 25 69 71 0 27 -14 50 -72
119 -39 47 -104 128 -144 181 -89 118 -126 137 -202 104z"/>
<path d="M2625 10107 c-27 -13 -87 -52 -133 -86 -120 -91 -154 -160 -118 -244
12 -31 94 -121 326 -360 177 -183 169 -181 297 -78 174 138 228 222 228 351 0
90 -17 127 -78 171 -40 30 -45 31 -112 25 -38 -3 -79 -8 -91 -11 -19 -6 -22
-2 -27 44 -8 67 -51 155 -90 183 -47 34 -137 36 -202 5z m119 -163 c12 -31 6
-84 -19 -161 -39 -126 -38 -125 -120 -43 l-69 70 44 46 c47 48 125 104 146
104 6 0 15 -7 18 -16z m326 -239 c0 -53 -75 -166 -150 -225 l-38 -30 -36 45
-37 45 53 61 c57 65 149 129 185 129 18 0 23 -6 23 -25z"/>
<path d="M5942 9259 c-169 -175 -224 -258 -244 -369 l-10 -59 -51 20 c-133 52
-147 61 -147 85 0 33 -36 54 -95 54 -74 0 -91 -16 -99 -92 -23 -229 -17 -347
19 -418 11 -21 11 -29 0 -43 -20 -28 -38 -181 -32 -271 2 -45 13 -106 24 -136
15 -45 16 -60 7 -79 -19 -37 -37 -215 -30 -284 4 -34 16 -87 26 -117 11 -32
15 -61 10 -70 -18 -34 -32 -137 -31 -233 0 -174 52 -288 173 -379 48 -37 94
-61 314 -163 38 -17 87 -47 107 -65 l37 -32 0 -227 c0 -198 7 -298 26 -363 4
-13 -7 -9 -43 15 -31 21 -105 50 -210 82 l-162 49 -21 66 c-11 36 -29 133 -39
215 -27 210 -68 321 -148 397 -83 79 -242 138 -386 144 -63 3 -83 8 -110 27
-86 65 -246 117 -363 117 -49 0 -66 5 -95 26 -88 66 -227 112 -354 117 -62 3
-77 8 -126 41 -93 61 -288 114 -388 104 -43 -4 -71 -40 -78 -101 -4 -37 -1
-49 17 -67 16 -16 23 -39 29 -90 l7 -68 -44 39 c-83 73 -199 97 -312 63 -29
-8 -92 -33 -139 -54 -72 -31 -95 -37 -133 -33 -39 5 -47 2 -65 -21 -28 -35
-37 -90 -21 -120 7 -13 41 -78 76 -144 99 -189 181 -286 281 -331 l42 -18 -68
-78 c-54 -62 -74 -79 -97 -80 -46 -2 -76 -45 -76 -111 l0 -55 113 -54 c134
-64 210 -85 310 -85 56 0 76 -4 80 -14 8 -20 158 -91 232 -111 32 -8 94 -15
137 -15 56 0 79 -4 85 -14 11 -20 155 -91 228 -112 34 -10 96 -18 142 -18 58
-1 84 -5 88 -14 8 -20 183 -99 260 -118 107 -25 209 -15 299 29 90 45 131 81
262 228 58 65 125 130 148 144 l43 25 227 -70 c142 -44 244 -70 273 -70 l46 0
-54 -58 c-30 -31 -90 -110 -134 -174 -102 -148 -104 -148 -337 -101 -173 35
-316 37 -402 5 -74 -27 -150 -84 -203 -153 -50 -64 -123 -207 -124 -240 0 -17
-14 -33 -47 -55 -26 -17 -69 -57 -95 -90 -56 -69 -140 -230 -134 -256 3 -10 1
-18 -3 -18 -20 0 -115 -87 -156 -142 -49 -67 -114 -196 -114 -227 0 -12 -17
-32 -42 -50 -80 -55 -136 -128 -207 -268 -45 -90 -49 -117 -25 -151 29 -42
122 -70 139 -42 8 13 42 13 104 -2 l50 -11 -42 -27 c-134 -87 -174 -201 -147
-425 10 -92 10 -107 -4 -127 -32 -46 -13 -104 44 -133 33 -17 81 -20 96 -6 5
6 54 17 109 26 209 33 332 82 403 159 l41 45 56 -88 c34 -55 55 -99 55 -117 0
-55 56 -104 119 -104 55 0 215 194 261 316 11 30 20 64 20 74 0 12 7 20 17 20
26 0 148 133 193 209 22 37 45 90 53 119 10 40 21 57 43 71 92 58 222 249 239
352 5 28 12 39 25 39 10 0 45 30 79 66 118 125 169 226 178 349 9 120 -22 207
-152 425 -35 58 -70 129 -79 159 l-16 53 134 192 c83 119 137 206 143 231 l9
40 35 -75 c20 -41 91 -158 159 -260 89 -134 123 -192 122 -211 -3 -43 -27 -91
-109 -222 -42 -67 -91 -153 -107 -192 -28 -64 -31 -79 -31 -181 0 -110 0 -111
42 -195 46 -93 161 -236 198 -245 18 -4 24 -15 30 -50 14 -95 141 -288 223
-339 17 -11 35 -31 38 -45 18 -76 41 -129 84 -194 48 -71 149 -176 169 -176 6
0 11 -9 11 -20 0 -34 45 -144 82 -198 19 -29 66 -86 102 -127 55 -62 73 -75
97 -75 66 0 119 49 119 109 0 25 14 57 51 113 28 43 54 78 58 78 3 0 24 -18
46 -41 21 -22 57 -51 80 -64 58 -35 206 -81 315 -99 52 -9 99 -21 104 -26 16
-16 75 -12 106 7 16 9 37 32 47 50 17 32 17 34 -1 68 -18 33 -19 43 -8 124 31
234 0 341 -125 431 l-54 38 71 13 c54 9 73 10 82 1 28 -28 111 -4 142 40 24
34 20 55 -33 163 -59 122 -115 199 -181 249 -31 24 -50 46 -50 58 0 33 -83
199 -129 255 -23 29 -64 70 -91 90 -37 28 -50 44 -50 63 0 13 -20 66 -45 117
-47 92 -137 205 -188 232 -17 9 -27 25 -31 50 -8 49 -75 179 -127 247 -51 66
-131 126 -202 151 -76 26 -237 24 -413 -6 -94 -16 -155 -22 -186 -17 l-46 7
-92 140 c-64 95 -117 162 -169 212 l-76 72 56 1 c30 1 151 25 268 53 126 32
222 50 236 47 38 -10 89 -60 178 -175 108 -140 184 -213 265 -253 57 -28 78
-33 162 -36 125 -5 275 33 362 91 28 20 43 22 103 19 40 -2 101 3 141 11 88
19 222 73 236 97 9 14 19 15 62 8 29 -4 81 -4 122 2 83 11 231 62 270 93 24
18 39 21 113 18 102 -2 198 20 313 72 100 46 115 74 82 156 -12 31 -24 43 -52
53 -26 10 -51 33 -94 93 -57 77 -58 80 -36 86 113 30 230 152 346 362 18 31
41 66 52 77 28 28 26 88 -3 131 -21 31 -28 34 -73 35 -40 1 -67 10 -127 43
-188 103 -319 109 -447 17 l-46 -33 7 46 c4 25 8 53 8 62 1 9 13 29 27 44 23
25 26 35 22 76 -3 26 -13 60 -23 75 l-17 27 -107 -6 c-58 -4 -134 -14 -169
-22 -59 -14 -150 -54 -181 -78 -7 -6 -51 -13 -98 -14 -148 -4 -270 -35 -350
-90 -32 -22 -48 -26 -104 -24 -124 4 -261 -29 -356 -85 -40 -23 -59 -27 -142
-30 -104 -3 -223 -29 -292 -64 -63 -33 -147 -117 -179 -180 -39 -78 -55 -136
-85 -295 -14 -77 -37 -163 -50 -192 -26 -58 -13 -52 -210 -98 -60 -14 -121
-30 -134 -36 -21 -8 -22 -7 -15 8 5 10 10 102 12 205 l3 187 37 32 c20 18 84
55 142 81 184 86 225 108 284 154 138 109 190 277 155 507 -6 40 -17 81 -24
93 -11 17 -10 29 8 80 16 46 21 83 21 169 0 106 -16 218 -35 241 -6 7 -3 28 7
55 35 99 35 296 0 401 -14 40 -14 49 4 107 23 71 26 198 9 296 -5 33 -13 80
-17 105 -8 52 -33 70 -98 70 -48 0 -91 -28 -96 -63 -2 -15 -19 -30 -58 -49
-30 -15 -58 -27 -62 -27 -3 -1 3 23 15 52 14 35 21 76 21 127 1 66 -3 84 -31
140 -18 36 -64 100 -102 142 -79 88 -91 106 -91 142 0 32 -43 56 -100 56 -39
0 -46 -5 -158 -121z m198 -161 c72 -86 94 -132 94 -198 0 -65 -21 -122 -74
-199 -48 -69 -107 -137 -113 -131 -75 87 -140 184 -153 228 -14 47 -14 57 0
105 8 28 29 74 46 101 32 50 127 156 141 156 4 0 30 -28 59 -62z m-563 -369
c242 -101 343 -232 331 -431 l-3 -56 -59 35 c-33 19 -104 53 -158 75 -162 67
-218 152 -218 329 0 75 3 90 14 86 8 -3 50 -20 93 -38z m961 -201 c-3 -76 -9
-115 -25 -149 -30 -67 -85 -123 -140 -144 -62 -23 -200 -92 -236 -117 -25 -18
-28 -18 -33 -3 -11 29 5 161 26 219 25 65 90 141 160 186 54 34 215 109 239
109 11 1 12 -19 9 -101z m-874 -337 c118 -53 131 -62 175 -117 43 -56 71 -148
71 -239 l0 -74 -67 40 c-37 21 -110 56 -161 76 -76 30 -102 46 -133 82 -51 58
-79 146 -79 252 l0 80 46 -27 c25 -15 92 -48 148 -73z m876 -201 c-23 -136
-74 -196 -222 -260 -54 -23 -122 -57 -152 -75 l-54 -32 -5 33 c-15 90 38 257
98 314 15 14 95 59 178 100 l152 75 8 -45 c5 -27 4 -71 -3 -110z m-988 -224
c35 -19 102 -51 151 -71 98 -42 135 -77 175 -164 26 -57 51 -204 39 -235 -6
-16 -9 -16 -37 4 -16 12 -74 41 -127 66 -173 79 -185 87 -220 137 -39 58 -52
99 -60 194 -5 65 -1 103 11 103 3 0 34 -15 68 -34z m998 -173 c0 -66 -17 -147
-41 -195 -32 -62 -81 -102 -167 -137 -44 -18 -114 -52 -156 -76 l-76 -43 0 73
c0 95 29 190 78 251 32 39 59 57 192 123 95 46 158 72 162 66 4 -5 8 -33 8
-62z m-867 -368 c124 -55 172 -100 208 -194 21 -55 40 -231 25 -231 -17 0
-226 96 -271 125 -60 38 -119 102 -139 150 -24 56 -38 153 -31 206 l7 48 46
-28 c26 -16 96 -50 155 -76z m-2012 -21 c115 -34 192 -88 231 -161 20 -37 29
-74 38 -158 6 -60 18 -136 26 -169 8 -32 13 -60 11 -63 -9 -8 -133 39 -179 69
-119 76 -173 193 -193 421 -4 44 -3 77 2 77 5 0 34 -7 64 -16z m2879 -92 c0
-140 -44 -237 -140 -307 -43 -32 -275 -145 -296 -145 -4 0 -5 42 -2 94 4 78
10 105 36 157 48 101 65 116 233 199 85 42 157 77 162 78 4 1 7 -33 7 -76z
m1873 -59 c-38 -269 -100 -391 -232 -457 -51 -26 -168 -63 -175 -55 -3 2 4 29
14 59 10 30 26 105 36 165 18 121 42 175 96 221 44 37 124 72 200 89 35 7 64
14 65 14 1 1 -1 -16 -4 -36z m-4287 6 c88 -26 141 -58 187 -108 52 -58 64 -86
71 -181 8 -87 29 -210 42 -244 7 -17 4 -18 -26 -12 -71 14 -169 68 -219 121
-67 70 -77 94 -90 215 -11 97 -24 169 -37 213 -7 21 -10 21 72 -4z m-822 -73
c53 -31 116 -101 168 -188 l38 -62 -87 -33 c-48 -19 -107 -38 -131 -44 -82
-18 -162 20 -241 116 -40 49 -106 163 -99 170 2 3 35 19 73 36 118 53 194 55
279 5z m4626 -73 c-10 -32 -25 -105 -35 -163 -19 -115 -32 -144 -97 -207 -52
-50 -124 -88 -206 -107 l-60 -14 19 57 c11 31 29 110 40 176 12 69 29 133 40
152 24 38 77 86 122 110 37 19 142 51 173 52 l22 1 -18 -57z m-3297 -13 c76
-29 146 -86 178 -146 20 -37 28 -70 33 -139 7 -85 27 -199 41 -237 7 -16 4
-17 -47 -2 -117 35 -206 99 -250 181 -21 37 -30 77 -42 173 -9 69 -20 141 -26
160 -5 19 -10 37 -10 39 0 8 67 -8 123 -29z m4207 -40 c47 -10 200 -79 200
-90 0 -19 -89 -140 -135 -186 -101 -98 -177 -106 -337 -33 -51 24 -95 44 -96
45 -8 5 65 102 117 158 65 67 127 103 201 115 3 0 25 -4 50 -9z m-1360 -3 c0
-2 -6 -26 -14 -53 -8 -27 -24 -101 -36 -164 -12 -63 -30 -129 -41 -146 -28
-46 -104 -113 -153 -135 -43 -19 -157 -51 -162 -46 -2 2 5 30 15 63 11 32 27
106 36 164 10 58 26 121 36 141 20 40 82 100 129 124 39 20 190 61 190 52z
m-2439 -81 c146 -44 232 -130 269 -264 9 -35 40 -253 40 -284 0 -27 -172 47
-230 99 -80 72 -98 111 -115 254 -9 68 -20 140 -25 159 -16 58 -15 59 61 36z
m1969 -42 c0 -3 -9 -40 -19 -82 -11 -43 -25 -111 -31 -152 -23 -146 -109 -236
-269 -284 -80 -24 -94 -22 -87 12 3 15 15 77 26 137 12 61 33 136 47 167 42
95 139 171 253 198 43 10 80 12 80 4z m-3295 -209 c28 -10 52 -19 54 -20 1 -2
-28 -34 -65 -72 -38 -38 -98 -101 -134 -140 -57 -63 -72 -74 -124 -89 -41 -11
-77 -15 -115 -11 -63 7 -181 44 -181 58 0 15 120 153 172 197 94 79 161 104
268 98 41 -2 98 -12 125 -21z m4778 -131 c81 -29 170 -108 260 -235 26 -37 47
-69 47 -71 0 -13 -133 -42 -195 -42 -59 0 -81 5 -130 29 -50 25 -71 44 -127
120 -38 49 -89 111 -115 137 l-46 47 29 11 c76 29 199 31 277 4z m-4371 1
c120 -25 119 -23 25 -118 -45 -45 -98 -103 -117 -129 -72 -95 -194 -121 -345
-74 l-87 27 44 39 c24 21 78 77 119 125 79 93 99 107 181 129 68 19 98 19 180
1z m3933 -130 c42 -21 73 -46 103 -85 24 -30 72 -90 108 -133 64 -76 64 -77
41 -86 -52 -20 -151 -33 -204 -28 -91 10 -139 41 -216 142 -37 50 -91 114
-120 143 -28 28 -47 52 -42 52 6 1 33 7 60 15 29 9 83 14 130 12 66 -2 90 -7
140 -32z m-3481 -10 c22 -4 56 -13 77 -22 l37 -14 -81 -82 c-45 -46 -98 -104
-117 -129 -25 -34 -52 -54 -94 -74 -52 -23 -67 -26 -140 -22 -49 3 -104 14
-138 27 l-57 22 44 40 c24 22 77 79 116 125 110 128 185 155 353 129z m3015
-102 c38 -19 70 -46 99 -83 24 -30 73 -90 108 -133 35 -42 64 -79 64 -81 0 -2
-29 -12 -64 -21 -46 -13 -88 -16 -144 -13 -110 6 -150 30 -230 138 -35 47 -86
109 -114 137 -29 29 -49 55 -46 58 3 3 34 12 69 20 92 21 189 13 258 -22z
m-2486 -58 c26 -9 47 -19 47 -22 0 -14 -179 -208 -218 -236 -65 -47 -84 -56
-146 -68 -58 -10 -157 4 -229 35 l-37 15 48 45 c26 25 77 79 112 121 60 71
106 105 170 126 39 13 200 3 253 -16z m2027 -58 c41 -21 68 -45 105 -95 28
-36 76 -96 108 -133 l58 -68 -53 -16 c-130 -39 -229 -27 -324 38 -28 19 -90
84 -145 153 l-97 119 52 17 c37 13 77 17 146 15 82 -2 103 -6 150 -30z m-1736
-637 c55 -11 101 -22 104 -24 7 -7 -59 -97 -102 -139 -55 -54 -148 -97 -208
-97 -26 0 -80 7 -120 16 -40 8 -108 18 -150 22 l-77 7 48 70 c53 79 124 138
191 160 58 19 180 13 314 -15z m1526 -69 c67 -26 123 -72 171 -142 59 -87 59
-89 6 -89 -24 0 -98 -9 -163 -21 -68 -12 -135 -18 -157 -15 -46 8 -122 45
-166 82 -36 30 -126 152 -118 160 2 3 51 13 108 23 142 26 255 26 319 2z
m-1272 -283 c100 -169 117 -211 117 -298 0 -85 -27 -156 -92 -241 l-36 -47
-33 68 c-18 38 -49 95 -70 127 -59 92 -74 132 -73 198 0 77 25 149 80 230 24
36 44 65 45 65 0 0 28 -46 62 -102z m801 -37 c53 -82 74 -156 69 -240 -3 -63
-8 -75 -63 -162 -33 -52 -74 -120 -91 -152 l-31 -58 -28 37 c-15 20 -42 64
-59 98 -27 53 -31 71 -31 141 0 70 4 89 33 150 38 79 142 245 154 245 5 0 26
-27 47 -59z m-1325 -21 c50 -6 92 -12 94 -14 14 -15 -99 -143 -159 -182 -20
-12 -61 -30 -91 -39 -51 -15 -61 -14 -159 5 -57 11 -134 23 -171 26 l-68 7 22
38 c35 63 103 133 157 162 74 41 122 46 211 25 41 -10 115 -23 164 -28z m2062
-57 c56 -19 164 -120 202 -190 l23 -43 -49 0 c-27 0 -103 -9 -168 -21 -69 -12
-134 -18 -154 -14 -55 10 -131 52 -178 98 -38 37 -102 124 -102 139 0 3 42 8
93 11 50 4 119 13 152 21 83 19 123 19 181 -1z m-1851 -239 c14 -32 55 -105
91 -165 62 -102 65 -110 66 -171 0 -40 -8 -83 -21 -118 -20 -54 -86 -150 -106
-157 -6 -2 -16 12 -23 31 -7 18 -35 71 -63 117 -71 117 -85 148 -93 196 -7 49
8 132 36 188 19 38 80 135 86 135 1 0 13 -25 27 -56z m1399 -115 c38 -68 59
-162 51 -224 -5 -40 -21 -75 -72 -156 -36 -57 -75 -126 -88 -152 l-23 -48 -30
39 c-43 54 -81 132 -91 189 -15 77 1 133 67 232 32 49 71 118 87 155 l30 66
22 -27 c12 -15 33 -48 47 -74z m-2026 41 c51 -11 126 -23 167 -27 41 -3 75 -8
75 -10 0 -14 -65 -95 -109 -136 -97 -91 -169 -108 -322 -78 -57 11 -130 23
-161 27 -32 3 -58 8 -58 11 0 2 18 30 39 62 58 84 125 138 201 162 41 12 71
10 168 -11z m2758 -94 c28 -13 68 -39 89 -57 36 -32 115 -142 115 -161 0 -4
-21 -8 -47 -8 -27 0 -103 -9 -170 -21 -115 -19 -126 -20 -177 -5 -67 20 -146
78 -198 147 -68 91 -70 85 40 93 53 3 124 13 157 20 89 21 134 19 191 -8z
m-2308 -400 c56 -90 57 -92 57 -166 0 -86 -29 -161 -92 -238 l-37 -45 -21 49
c-12 27 -50 96 -85 153 -55 90 -63 111 -67 165 -6 79 21 168 79 252 l42 63 33
-71 c18 -39 59 -112 91 -162z m1863 11 c20 -42 24 -69 24 -143 l0 -90 -58 -92
c-32 -50 -72 -118 -89 -151 l-31 -60 -30 37 c-16 20 -44 66 -61 102 -26 55
-31 77 -31 140 l0 76 66 101 c37 56 79 129 95 162 l28 61 32 -45 c17 -25 42
-69 55 -98z m-2576 88 c66 -14 146 -25 178 -25 l58 0 -16 -29 c-25 -50 -121
-145 -172 -173 -100 -54 -186 -58 -375 -16 l-98 21 23 40 c51 92 136 166 220
193 55 17 44 17 182 -11z m3290 -99 c28 -12 64 -35 82 -50 34 -29 129 -164
121 -172 -3 -2 -52 -14 -109 -25 -244 -48 -394 1 -503 165 -20 30 -36 56 -36
59 0 2 42 7 93 11 50 4 119 13 152 20 91 21 143 19 200 -8z m-2941 -231 c16
-36 56 -108 89 -161 58 -92 60 -97 60 -162 0 -45 -7 -85 -21 -122 -21 -54 -87
-150 -107 -157 -13 -4 -95 123 -137 212 -30 65 -33 78 -33 170 0 85 3 107 23
145 28 53 85 140 92 140 3 0 18 -30 34 -65z m2436 -54 c40 -57 80 -157 86
-217 11 -100 -22 -190 -124 -343 l-56 -83 -28 33 c-15 19 -43 63 -61 99 -29
58 -32 74 -32 150 l0 85 62 92 c34 51 74 120 90 153 15 33 30 60 34 60 4 0 17
-13 29 -29z m-2765 -165 c11 -169 -25 -246 -141 -305 -50 -25 -178 -61 -215
-61 -27 0 -27 1 -34 85 -4 46 -4 101 0 122 15 81 70 150 155 193 36 18 191 68
216 69 8 1 14 -36 19 -103z m3162 -22 c150 -51 232 -127 249 -231 7 -48 -3
-182 -16 -203 -18 -29 -215 35 -295 95 -70 54 -90 138 -71 306 l7 67 39 -9
c21 -5 60 -16 87 -25z"/>
<path d="M2100 3446 c-143 -31 -250 -145 -266 -284 -18 -155 115 -388 252
-440 126 -49 228 -7 195 80 -10 26 -19 31 -113 53 -37 9 -114 95 -144 160 -31
68 -36 150 -11 189 22 33 87 77 129 85 48 10 185 -16 248 -47 66 -33 100 -88
100 -164 0 -82 28 -115 91 -106 36 5 61 59 62 132 1 102 -19 153 -82 215 -71
68 -137 99 -254 117 -144 22 -149 22 -207 10z"/>
<path d="M9633 3435 c-104 -45 -293 -314 -293 -416 0 -46 32 -88 108 -141 42
-29 141 -98 219 -154 149 -107 215 -141 255 -129 33 10 68 45 68 68 0 31 -45
83 -111 128 -69 47 -69 47 18 105 l56 37 54 -27 c30 -15 74 -29 97 -32 38 -6
45 -3 60 17 25 36 21 92 -9 128 -33 38 -123 72 -197 74 l-58 2 0 56 c0 127
-39 236 -100 277 -39 26 -116 29 -167 7z m77 -197 c35 -77 20 -181 -35 -254
l-25 -33 -70 47 c-38 26 -67 52 -65 59 4 13 168 223 173 223 2 0 12 -19 22
-42z"/>
<path d="M2805 2803 c-48 -26 -82 -57 -222 -204 -185 -196 -216 -270 -153
-360 42 -58 377 -289 420 -289 24 0 60 43 60 71 0 33 -111 138 -238 224 -56
38 -102 73 -102 78 0 6 18 34 41 64 l40 54 67 -62 c66 -61 127 -99 157 -99 24
0 55 37 55 66 0 20 -21 48 -85 112 -47 46 -85 86 -85 89 0 10 94 103 104 103
6 0 36 -33 66 -72 189 -248 269 -309 331 -247 35 35 19 70 -89 198 -53 64
-103 124 -111 134 -10 12 4 9 49 -14 106 -52 210 -50 210 5 0 38 -51 72 -157
106 -99 32 -149 33 -160 3 -5 -11 -11 -9 -32 10 -54 50 -110 60 -166 30z"/>
<path d="M8879 2641 c-16 -12 -29 -35 -33 -56 -10 -51 20 -212 65 -353 95
-291 214 -437 293 -359 35 35 33 61 -14 153 -22 43 -40 84 -40 89 0 6 14 19
31 29 17 10 62 47 99 82 l68 64 75 -30 c89 -36 165 -40 190 -12 21 23 22 76 2
95 -8 9 -148 81 -310 162 -327 162 -374 177 -426 136z m270 -327 c-29 -30 -54
-52 -55 -51 -1 1 -13 44 -27 95 l-26 92 80 -41 80 -42 -52 -53z"/>
<path d="M3478 2280 c-34 -20 -59 -118 -74 -285 -7 -88 -19 -195 -25 -238 -6
-44 -9 -110 -7 -147 7 -88 31 -131 83 -148 37 -12 43 -11 99 18 34 16 138 93
231 171 94 77 207 165 253 195 84 55 120 102 106 138 -7 17 -64 46 -93 46 -64
0 -196 -78 -356 -212 -55 -46 -109 -90 -119 -98 -19 -15 -19 -12 -13 80 27
391 28 452 11 471 -18 20 -68 25 -96 9z"/>
<path d="M8390 2246 c-63 -24 -183 -87 -269 -143 -113 -73 -276 -198 -295
-225 -25 -35 -20 -73 12 -98 40 -32 88 -22 184 40 45 28 84 52 88 53 4 1 44
-70 89 -158 84 -167 150 -265 198 -296 37 -25 52 -24 88 5 30 24 30 24 17 72
-15 56 -72 176 -166 349 -36 66 -66 123 -66 126 0 4 41 31 92 60 159 93 213
164 160 212 -22 20 -82 21 -132 3z"/>
<path d="M4368 1834 c-44 -23 -74 -88 -129 -279 -65 -224 -75 -329 -37 -385
13 -19 40 -43 60 -53 46 -23 300 -57 424 -57 101 0 104 2 104 66 0 27 -6 36
-29 48 -42 22 -149 44 -290 61 -68 7 -126 17 -129 20 -6 5 13 133 20 140 2 2
37 -5 78 -15 41 -11 103 -20 138 -20 59 0 63 2 73 27 24 64 -1 84 -148 123
-43 12 -83 23 -90 25 -9 3 -7 22 7 71 11 37 23 71 28 76 5 5 44 -8 88 -28 167
-76 250 -106 310 -111 54 -5 64 -3 83 16 26 26 27 72 3 94 -10 9 -60 32 -112
52 -52 21 -152 61 -222 91 -134 57 -181 65 -230 38z"/>
<path d="M7343 1831 c-115 -29 -233 -161 -318 -357 -43 -98 -46 -154 -10 -189
15 -16 36 -25 55 -25 17 0 103 25 192 55 88 30 173 55 189 55 28 0 62 -32 74
-71 8 -25 -21 -64 -63 -85 -29 -13 -56 -15 -181 -9 -164 8 -191 2 -191 -41 0
-78 73 -124 210 -132 135 -7 206 10 285 70 152 115 175 230 68 349 -85 94
-157 108 -322 64 -52 -14 -95 -24 -97 -22 -8 8 103 177 120 183 10 3 37 1 60
-6 23 -6 62 -10 86 -8 38 3 46 7 54 31 29 83 -98 166 -211 138z"/>
<path d="M6545 1665 c-30 -29 -32 -74 -10 -232 28 -201 33 -189 -43 -103 -190
214 -291 292 -355 273 -52 -15 -57 -35 -57 -273 0 -374 29 -493 114 -460 51
19 55 46 49 286 l-5 219 47 -45 c55 -53 163 -187 230 -285 64 -95 73 -104 117
-115 49 -14 73 -1 89 47 26 80 -13 524 -57 641 -27 72 -76 91 -119 47z"/>
<path d="M5660 1628 c-18 -29 -20 -52 -21 -188 0 -85 -4 -163 -8 -174 -6 -15
-20 2 -75 88 -141 221 -227 306 -296 291 -17 -4 -37 -17 -45 -29 -21 -32 -75
-419 -75 -539 0 -124 15 -167 60 -167 39 0 77 36 84 81 3 19 10 86 16 149 6
63 16 148 22 188 9 61 13 70 25 61 28 -24 124 -179 193 -312 76 -146 103 -177
156 -177 71 0 93 86 101 402 8 298 -6 358 -84 358 -27 0 -37 -6 -53 -32z"/>
</g>
</svg>
